<?xml version="1.0" standalone="no"?>
<!DOCTYPE svg PUBLIC "-//W3C//DTD SVG 20010904//EN"
 "http://www.w3.org/TR/2001/REC-SVG-20010904/DTD/svg10.dtd">
<svg version="1.0" xmlns="http://www.w3.org/2000/svg"
 width="400.000000pt" height="400.000000pt" viewBox="0 0 400.000000 400.000000"
 preserveAspectRatio="xMidYMid meet">

<g transform="translate(0.000000,400.000000) scale(0.100000,-0.100000)"
fill="#000000" stroke="none">
<path d="M1600 3440 c-14 -4 -106 -33 -205 -64 -99 -32 -292 -93 -428 -137
l-248 -80 4 -662 c3 -587 5 -671 21 -737 25 -109 69 -237 115 -332 38 -81 139
-242 177 -283 11 -11 40 -46 67 -77 26 -31 91 -94 145 -140 53 -45 102 -87
108 -93 21 -19 129 -113 215 -187 98 -83 169 -144 321 -276 l107 -93 69 58
c37 32 115 99 172 148 94 82 175 151 329 284 209 178 292 255 331 302 25 30
50 59 56 64 25 22 107 143 149 219 86 159 143 333 165 506 7 56 10 296 8 694
l-3 610 -375 118 c-502 158 -530 167 -530 159 0 -3 38 -78 84 -165 l83 -159
184 -58 c101 -32 209 -66 239 -76 l55 -18 0 -515 c0 -377 -4 -537 -13 -598
-42 -267 -187 -518 -414 -716 -43 -38 -75 -73 -71 -79 3 -6 1 -7 -6 -3 -7 5
-46 -22 -99 -69 -251 -222 -401 -347 -416 -343 -13 3 -67 48 -489 412 -86 75
-172 152 -190 172 -17 21 -45 51 -60 68 -54 60 -138 196 -177 285 -89 204
-100 310 -100 924 l0 457 23 10 c12 5 117 39 232 75 116 37 215 72 222 78 11
12 178 328 171 326 -2 0 -14 -4 -28 -9z"/>
<path d="M1936 3337 c-32 -62 -80 -152 -106 -202 -26 -49 -100 -191 -165 -315
-65 -124 -130 -247 -145 -275 -15 -27 -70 -133 -123 -235 -53 -102 -109 -209
-125 -237 -27 -50 -28 -57 -20 -123 5 -39 19 -105 33 -148 24 -77 101 -223
120 -229 6 -2 31 39 57 89 48 94 149 287 294 563 44 83 115 219 159 303 44 83
82 152 85 152 3 0 58 -100 123 -223 64 -122 126 -238 136 -257 54 -97 270
-499 318 -592 8 -16 18 -28 23 -28 24 0 112 184 134 281 31 138 30 154 -26
259 -28 52 -71 133 -96 180 -25 47 -89 166 -142 265 -53 99 -119 221 -145 270
-27 50 -75 140 -108 200 -33 61 -82 153 -110 205 -28 52 -64 120 -82 152 l-31
56 -58 -111z"/>
<path d="M1811 1715 l-184 -365 24 -19 c13 -10 33 -27 45 -37 165 -145 295
-254 304 -254 10 0 55 36 125 100 47 42 168 150 215 190 11 9 20 21 20 24 0
10 -349 709 -358 718 -4 4 -90 -156 -191 -357z"/>
</g>
</svg>
